<?xml version="1.0" encoding="UTF-8" standalone="no"?>
<svg
   xmlns:dc="http://purl.org/dc/elements/1.1/"
   xmlns:cc="http://creativecommons.org/ns#"
   xmlns:rdf="http://www.w3.org/1999/02/22-rdf-syntax-ns#"
   xmlns:svg="http://www.w3.org/2000/svg"
   xmlns="http://www.w3.org/2000/svg"
   xmlns:sodipodi="http://sodipodi.sourceforge.net/DTD/sodipodi-0.dtd"
   xmlns:inkscape="http://www.inkscape.org/namespaces/inkscape"
   version="1.1"
   width="600"
   height="500"
   id="svg38"
   viewBox="0 0 600 500"
   sodipodi:docname="logo-farmacia-conquista.svg"
   inkscape:version="0.92.3 (2405546, 2018-03-11)">
  <metadata
     id="metadata44">
    <rdf:RDF>
      <cc:Work
         rdf:about="">
        <dc:format>image/svg+xml</dc:format>
        <dc:type
           rdf:resource="http://purl.org/dc/dcmitype/StillImage" />
        <dc:title></dc:title>
      </cc:Work>
    </rdf:RDF>
  </metadata>
  <defs
     id="defs42" />
  <sodipodi:namedview
     pagecolor="#ffffff"
     bordercolor="#666666"
     borderopacity="1"
     objecttolerance="10"
     gridtolerance="10"
     guidetolerance="10"
     inkscape:pageopacity="0"
     inkscape:pageshadow="2"
     inkscape:window-width="1366"
     inkscape:window-height="717"
     id="namedview40"
     showgrid="false"
     inkscape:zoom="0.28032173"
     inkscape:cx="-719.05113"
     inkscape:cy="420.94488"
     inkscape:window-x="0"
     inkscape:window-y="0"
     inkscape:window-maximized="1"
     inkscape:current-layer="svg38" />
  <g
     id="Layer1000"
     transform="translate(2.3622883,25.242316)">
    <path
       d="m 151.1219,241.6985 -1.2108,9.862 h 12.481 l -0.652,5.3598 h -12.4344 l -1.0712,8.8973 c -0.2173,1.5364 -0.5976,2.9836 -1.1409,4.3414 -0.5434,1.3578 -1.2342,2.4923 -2.0725,3.4035 -0.8382,0.9111 -1.8162,1.5454 -2.9339,1.9027 -1.1177,0.3573 -2.3441,0.3037 -3.6791,-0.1608 l 4.7036,-38.9657 h 24.2635 c 0.1863,0.929 0.1087,1.733 -0.2329,2.4119 -0.3415,0.6789 -0.8693,1.2328 -1.5834,1.6615 -0.7141,0.4288 -1.5911,0.7504 -2.6312,0.9648 -1.0401,0.2144 -2.1811,0.3216 -3.423,0.3216 z m 128.2612,-6.9889 h 5.6295 c 2.0127,0 2.8813,-1.2208 3.2037,-3.5075 l 0.0105,-0.009 0.5123,-4.1271 -2e-4,2e-4 0.0266,-0.2116 z m 89.458,40.5948 h -8.2897 l -0.9314,-7.5037 h -10.3387 c -0.7452,1.8938 -1.4748,3.4124 -2.1889,4.5558 -0.714,1.1434 -1.4902,1.9921 -2.3285,2.5459 -0.8383,0.5539 -1.7697,0.8486 -2.7943,0.8844 -1.0245,0.0357 -2.2354,-0.1251 -3.6325,-0.4824 0.3726,-1.0362 1.1177,-3.1265 2.2354,-6.271 0.4657,-1.322 1.0479,-2.9478 1.7464,-4.8774 0.6986,-1.9295 1.5213,-4.2164 2.4683,-6.8605 0.9469,-2.6442 2.0491,-5.6993 3.3065,-9.1653 1.2574,-3.466 2.6778,-7.3965 4.2613,-11.7915 h 6.7527 c 0.6831,0 1.3584,0.1429 2.0259,0.4288 0.6675,0.2858 1.2729,0.6699 1.8162,1.1523 0.5434,0.4824 0.9936,1.0273 1.3506,1.6348 0.357,0.6074 0.5666,1.2506 0.6287,1.9295 z m -9.8731,-12.8635 -1.956,-16.0258 -5.7747,16.0258 z m -18.8612,-26.1022 -3.8654,31.194 c -0.1863,1.7151 -0.5511,3.1623 -1.0944,4.3414 -0.5433,1.1792 -1.2264,2.0814 -2.0491,2.7067 -0.8228,0.6253 -1.7697,1.0005 -2.8408,1.1256 -1.0712,0.125 -2.2277,-0.009 -3.4696,-0.402 l 4.7037,-38.9657 z m -12.2947,6.5925 c -0.1863,1.5008 -0.9935,2.4923 -2.4217,2.9747 -1.4282,0.4824 -3.6015,0.4377 -6.5199,-0.134 l 0.326,-1.7687 c 0.062,-0.6074 -0.1863,-1.1256 -0.7452,-1.5543 -0.5588,-0.4288 -1.2884,-0.6432 -2.1888,-0.6432 h -3.1203 c -0.8693,0 -1.6299,0.2144 -2.2819,0.6432 -0.652,0.4287 -1.0091,0.9469 -1.0712,1.5543 l -2.9339,23.7975 c -0.0621,0.5717 0.1785,1.0719 0.7218,1.5007 0.5433,0.4288 1.2652,0.6432 2.1656,0.6432 h 3.0736 c 0.8694,0 1.6378,-0.2144 2.3053,-0.6432 0.6675,-0.4288 1.0479,-0.929 1.141,-1.5007 l 0.4657,-3.8591 h 8.4759 l -0.5123,4.8238 c -0.0931,0.8933 -0.4346,1.742 -1.0245,2.5459 -0.5899,0.804 -1.3506,1.5008 -2.282,2.0904 -0.9314,0.5895 -1.987,1.0541 -3.1668,1.3935 -1.1798,0.3395 -2.4062,0.5092 -3.6791,0.5092 h -7.7774 c -1.2729,0 -2.4527,-0.1697 -3.5394,-0.5092 -1.0866,-0.3394 -2.018,-0.804 -2.7942,-1.3935 -0.7762,-0.5896 -1.3739,-1.2864 -1.793,-2.0904 -0.4192,-0.8039 -0.5822,-1.6526 -0.489,-2.5459 l 3.1203,-25.8342 c 0.1552,-0.8933 0.5355,-1.7419 1.1409,-2.5459 0.6055,-0.8039 1.3584,-1.5007 2.2587,-2.0903 0.9004,-0.5896 1.9327,-1.063 3.097,-1.4203 1.1643,-0.3573 2.3829,-0.536 3.6558,-0.536 h 7.8705 c 1.2419,0 2.4139,0.1787 3.5161,0.536 1.1022,0.3573 2.0414,0.8307 2.8175,1.4203 0.7762,0.5896 1.3661,1.2864 1.7697,2.0903 0.4037,0.804 0.5434,1.6526 0.4192,2.5459 z m -34.0434,32.3732 h -8.2896 l -0.9314,-7.5037 h -10.3388 c -0.7451,1.8938 -1.4747,3.4124 -2.1888,4.5558 -0.7141,1.1434 -1.4903,1.9921 -2.3286,2.5459 -0.8382,0.5539 -1.7696,0.8486 -2.7942,0.8844 -1.0246,0.0357 -2.2354,-0.1251 -3.6325,-0.4824 0.3725,-1.0362 1.1177,-3.1265 2.2354,-6.271 0.4657,-1.322 1.0478,-2.9478 1.7464,-4.8774 0.6985,-1.9295 1.5213,-4.2164 2.4682,-6.8605 0.947,-2.6442 2.0492,-5.6993 3.3066,-9.1653 1.2574,-3.466 2.6778,-7.3965 4.2612,-11.7915 h 6.7528 c 0.683,0 1.3583,0.1429 2.0258,0.4288 0.6676,0.2858 1.273,0.6699 1.8163,1.1523 0.5433,0.4824 0.9935,1.0273 1.3506,1.6348 0.357,0.6074 0.5666,1.2506 0.6287,1.9295 z m -9.873,-12.8635 -1.956,-16.0258 -5.7748,16.0258 z m -34.5091,-17.2585 c 1.1798,-2.9301 2.7399,-5.0918 4.6804,-6.4854 1.9405,-1.3935 4.2302,-2.1796 6.8692,-2.3583 h 4.1448 l -4.6571,38.9657 c -1.3039,0.536 -2.4682,0.7236 -3.4928,0.5628 -1.0245,-0.1608 -1.8706,-0.6432 -2.5381,-1.4472 -0.6675,-0.8039 -1.1332,-1.9295 -1.3971,-3.3766 -0.2639,-1.4472 -0.2562,-3.207 0.0232,-5.2794 l 1.5835,-14.1499 -9.0348,23.6903 h -7.9171 l -3.4462,-23.6903 -2.7011,23.6903 h -7.8705 l 3.7257,-30.122 c 0.3725,-3.0373 1.2341,-5.2795 2.5846,-6.7266 1.3506,-1.4471 3.3764,-2.1528 6.0776,-2.1171 h 4.9831 l 3.2133,23.2079 z m -31.8079,9.0044 c 0.9935,0.2501 1.8162,0.5985 2.4682,1.0452 0.652,0.4466 1.1565,0.9647 1.5136,1.5543 0.357,0.5896 0.5976,1.2238 0.7218,1.9027 0.1242,0.6789 0.1397,1.3757 0.0466,2.0904 l -1.7231,14.525 h -8.5691 l 1.8163,-16.133 c 0.1242,-0.5717 -0.0776,-1.0898 -0.6054,-1.5543 -0.5278,-0.4645 -1.2109,-0.6968 -2.0492,-0.6968 h -7.0787 l -1.0712,8.8973 c -0.2483,1.858 -0.6442,3.4928 -1.1875,4.9042 -0.5433,1.4114 -1.2342,2.5459 -2.0724,3.4034 -0.8383,0.8576 -1.8085,1.4025 -2.9107,1.6348 -1.1022,0.2322 -2.3208,0.0804 -3.6558,-0.4556 l 4.7036,-38.8049 h 17.1847 c 1.304,0 2.5071,0.1697 3.6093,0.5092 1.1021,0.3394 2.0413,0.8039 2.8175,1.3935 0.7762,0.5896 1.3583,1.2774 1.7464,2.0635 0.3881,0.7861 0.52,1.6437 0.3959,2.5727 l -0.5589,4.6631 c -0.1863,1.3935 -0.7063,2.6709 -1.5601,3.8322 -0.8538,1.1613 -2.1811,2.0457 -3.9818,2.6531 z m -2.5614,-10.1836 c 0.0621,-0.536 -0.1863,-1.0362 -0.7452,-1.5007 -0.5588,-0.4646 -1.2884,-0.6968 -2.1888,-0.6968 h -6.1474 l -1.2108,9.7548 h 6.2871 c 0.8072,0 1.5446,-0.2144 2.2121,-0.6432 0.6675,-0.4287 1.0323,-0.9111 1.0944,-1.4471 z m -24.9621,31.3012 h -8.2896 l -0.9314,-7.5037 h -10.3387 c -0.7452,1.8938 -1.4748,3.4124 -2.1889,4.5558 -0.7141,1.1434 -1.4902,1.9921 -2.3285,2.5459 -0.8383,0.5539 -1.7697,0.8486 -2.7943,0.8844 -1.0245,0.0357 -2.2354,-0.1251 -3.6325,-0.4824 0.3725,-1.0362 1.1177,-3.1265 2.2354,-6.271 0.4657,-1.322 1.0478,-2.9478 1.7464,-4.8774 0.6986,-1.9295 1.5213,-4.2164 2.4683,-6.8605 0.9469,-2.6442 2.0491,-5.6993 3.3065,-9.1653 1.2574,-3.466 2.6778,-7.3965 4.2612,-11.7915 h 6.7528 c 0.6831,0 1.3583,0.1429 2.0258,0.4288 0.6676,0.2858 1.273,0.6699 1.8163,1.1523 0.5433,0.4824 0.9935,1.0273 1.3506,1.6348 0.357,0.6074 0.5666,1.2506 0.6287,1.9295 z m -9.873,-12.8635 -1.956,-16.0258 -5.7748,16.0258 z"
       style="fill:#e30016;fill-rule:evenodd"
       id="path2"
       inkscape:connector-curvature="0" />
    <path
       d="m 130.9475,275.5255 c -0.5001,3.9578 -2.6639,6.5732 -6.4944,7.8451 -3.8295,1.272 -9.6575,1.1539 -17.4849,-0.3532 l 0.8745,-4.6652 c 0.1663,-1.6014 -0.5002,-2.9676 -1.9985,-4.0986 -1.4983,-1.1311 -3.4552,-1.6967 -5.8695,-1.6967 h -8.3671 c -2.3322,0 -4.3722,0.5656 -6.1201,1.6967 -1.7489,1.131 -2.7065,2.4972 -2.8729,4.0986 l -7.868,62.7599 c -0.1663,1.5081 0.4783,2.8267 1.9361,3.9578 1.4567,1.1311 3.3928,1.6956 5.8071,1.6956 h 8.2423 c 2.3323,0 4.392,-0.5645 6.1825,-1.6956 1.7895,-1.1311 2.8105,-2.4497 3.0601,-3.9578 l 1.2488,-10.1777 h 22.7305 l -1.3746,12.7216 c -0.2496,2.3565 -1.1656,4.5938 -2.7471,6.7141 -1.5825,2.1203 -3.6226,3.9578 -6.1201,5.5125 -2.4975,1.5557 -5.3288,2.7801 -8.4929,3.676 -3.163,0.8949 -6.4518,1.3424 -9.8654,1.3424 H 74.4971 c -3.4136,0 -6.5776,-0.4475 -9.4911,-1.3424 -2.9155,-0.8959 -5.413,-2.1203 -7.4936,-3.676 -2.0827,-1.5547 -3.685,-3.3922 -4.809,-5.5125 -1.124,-2.1203 -1.5607,-4.3576 -1.3111,-6.7141 l 8.367,-68.1305 c 0.417,-2.3554 1.436,-4.5937 3.0601,-6.714 1.6231,-2.1203 3.6434,-3.9578 6.0577,-5.5125 2.4144,-1.5548 5.1822,-2.8039 8.3047,-3.7455 3.1224,-0.9425 6.3904,-1.4138 9.804,-1.4138 h 21.1064 c 3.3304,0 6.4737,0.4713 9.4297,1.4138 2.9561,0.9416 5.4744,2.1907 7.555,3.7455 2.0827,1.5547 3.6642,3.3922 4.7466,5.5125 1.0824,2.1203 1.4567,4.3586 1.124,6.714 z m 38.4363,11.3783 c 2.3988,0 4.6457,0.3393 6.745,1.0179 2.0983,0.6787 3.8971,1.5776 5.3954,2.6977 1.4994,1.1192 2.639,2.4428 3.4178,3.9697 0.7798,1.526 1.0792,3.1383 0.8994,4.8339 l -6.3853,50.3835 c -0.1196,1.6282 -0.7341,3.172 -1.8435,4.6315 -1.1084,1.4585 -2.5485,2.7305 -4.3161,3.8169 -1.7697,1.0854 -3.7931,1.9506 -6.0713,2.5955 -2.2781,0.6439 -4.6769,0.9664 -7.1942,0.9664 h -14.929 c -2.5184,0 -4.8267,-0.3225 -6.9249,-0.9664 -2.0983,-0.6449 -3.9117,-1.5101 -5.4401,-2.5955 -1.5296,-1.0864 -2.6691,-2.3584 -3.4178,-3.8169 -0.7497,-1.4595 -1.0346,-3.0033 -0.8547,-4.6315 l 6.116,-50.3835 c 0.1799,-1.6956 0.8536,-3.3079 2.0234,-4.8339 1.1687,-1.5269 2.6368,-2.8505 4.4065,-3.9697 1.7677,-1.1201 3.7921,-2.019 6.0702,-2.6977 2.2782,-0.6786 4.6468,-1.0179 7.1048,-1.0179 z m -0.3598,14.5551 c 0.1799,-1.1529 -0.2547,-2.1034 -1.3038,-2.8495 -1.0502,-0.7471 -2.4435,-1.1202 -4.182,-1.1202 h -6.0255 c -1.6782,0 -3.1775,0.3731 -4.497,1.1202 -1.3185,0.7461 -2.0078,1.6966 -2.0681,2.8495 l -5.7562,46.1083 c -0.1196,1.1539 0.3753,2.1203 1.4848,2.9011 1.1084,0.7799 2.5329,1.1708 4.2714,1.1708 h 5.935 c 1.6792,0 3.1484,-0.3909 4.4066,-1.1708 1.2591,-0.7808 1.9787,-1.7472 2.1585,-2.9011 z m 59.5344,2.9517 c 0.8391,-7.3956 2.9083,-12.5529 6.2054,-15.4709 3.2982,-2.918 7.4645,-3.4944 12.5002,-1.7304 l -9.0825,73.6917 h -21.1344 l -11.0611,-44.2757 -5.2156,44.2757 h -16.9077 l 9.0824,-73.6917 h 21.3143 l 10.8823,44.2758 z m 67.6301,45.3959 c -0.2402,1.9675 -1.0949,3.8001 -2.5641,5.4967 -1.4682,1.6956 -3.4313,3.0529 -5.8903,4.0709 0.2402,1.1539 0.8391,2.019 1.7988,2.5955 0.9597,0.5764 2.2189,0.8652 3.7775,0.8652 1.438,0 1.9631,0.3899 1.5732,1.1707 -0.3889,0.7799 -1.3642,1.5776 -2.9228,2.3921 -1.5587,0.8136 -3.477,1.4417 -5.7552,1.8832 -2.2781,0.4405 -4.5864,0.2877 -6.9249,-0.4584 -1.7385,-0.6786 -3.1921,-1.5101 -4.3618,-2.4933 -1.1698,-0.9843 -1.934,-2.155 -2.2927,-3.5123 h -10.7919 c -2.5183,0 -4.8266,-0.3225 -6.9259,-0.9664 -2.0972,-0.6449 -3.9116,-1.5101 -5.4401,-2.5955 -1.5285,-1.0864 -2.6681,-2.3584 -3.4167,-3.8169 -0.7497,-1.4595 -1.0346,-3.0033 -0.8547,-4.6315 l 6.1149,-50.3835 c 0.1799,-1.6956 0.8537,-3.3079 2.0234,-4.8339 1.1698,-1.5269 2.6379,-2.8505 4.4066,-3.9697 1.7686,-1.1201 3.7931,-2.019 6.0712,-2.6977 2.2771,-0.6786 4.6457,-1.0179 7.1038,-1.0179 h 15.1984 c 2.3987,0 4.6467,0.3393 6.745,1.0179 2.0993,0.6787 3.8981,1.5776 5.3954,2.6977 1.4993,1.1192 2.6389,2.4428 3.4187,3.9697 0.7788,1.526 1.0793,3.1383 0.8994,4.8339 z m -10.4321,-48.3476 c 0.1789,-1.1529 -0.2558,-2.1034 -1.3049,-2.8495 -1.0491,-0.7471 -2.4435,-1.1202 -4.182,-1.1202 h -6.0244 c -1.6793,0 -3.1786,0.3731 -4.497,1.1202 -1.3185,0.7461 -2.0089,1.6966 -2.0682,2.8495 l -5.7561,46.1083 c -0.1207,1.1539 0.3753,2.1203 1.4837,2.9011 1.1095,0.7799 2.5329,1.1708 4.2724,1.1708 h 5.9351 c 1.6782,0 3.1474,-0.3909 4.4065,-1.1708 1.2592,-0.7808 1.9787,-1.7472 2.1586,-2.9011 z m 58.7244,-14.5551 c 2.6379,-0.8821 4.9462,-1.1361 6.9249,-0.763 1.9787,0.373 3.582,1.2888 4.8111,2.7483 1.229,1.4585 2.0691,3.4607 2.5183,6.0046 0.4502,2.5449 0.4648,5.4798 0.0447,8.8046 l -5.8446,46.1082 c -0.1206,1.6282 -0.7351,3.172 -1.8445,4.6315 -1.1084,1.4585 -2.5475,2.7305 -4.3161,3.8169 -1.7687,1.0854 -3.7921,1.9506 -6.0702,2.5955 -2.2792,0.6439 -4.6769,0.9664 -7.1953,0.9664 h -14.928 c -2.5184,0 -4.8267,-0.3225 -6.926,-0.9664 -2.0972,-0.6449 -3.9116,-1.5101 -5.4401,-2.5955 -1.5284,-1.0864 -2.668,-2.3584 -3.4167,-3.8169 -0.7496,-1.4595 -1.0345,-3.0033 -0.8547,-4.6315 l 7.7328,-62.9027 h 16.4586 l -7.4645,60.6634 c -0.1206,1.1539 0.3754,2.1203 1.4838,2.9011 1.1094,0.7799 2.5328,1.1708 4.2724,1.1708 h 5.935 c 1.6782,0 3.1474,-0.3909 4.4066,-1.1708 1.2592,-0.7808 1.9787,-1.7472 2.1586,-2.9011 z m 38.5809,0 -7.4646,59.2386 c -0.3597,3.2573 -1.0647,6.0057 -2.1128,8.244 -1.0491,2.2393 -2.3686,3.9528 -3.9574,5.1404 -1.5898,1.1877 -3.4177,1.9001 -5.4858,2.1372 -2.0692,0.2381 -4.3016,-0.0169 -6.7003,-0.763 l 9.0824,-73.9972 z m 52.2507,62.9027 c -0.2402,1.6282 -0.9295,3.1889 -2.0681,4.6821 -1.1396,1.4932 -2.5932,2.7989 -4.3619,3.9191 -1.7686,1.1191 -3.7775,2.0012 -6.0254,2.6461 -2.248,0.6449 -4.6322,0.9664 -7.1495,0.9664 H 397.631 c -2.5184,0 -4.8267,-0.3215 -6.9249,-0.9664 -2.0983,-0.6449 -3.9117,-1.527 -5.4412,-2.6461 -1.5284,-1.1202 -2.668,-2.4259 -3.4167,-3.9191 -0.7496,-1.4932 -1.0345,-3.0539 -0.8547,-4.6821 l 1.0793,-9.6697 h 16.6375 l -0.9899,7.5326 c -0.1196,1.1529 0.3754,2.1034 1.4848,2.8495 1.1084,0.7461 2.5319,1.1202 4.2714,1.1202 h 9.0824 c 1.7385,0 3.2077,-0.3741 4.4076,-1.1202 1.1989,-0.7461 1.8883,-1.6966 2.0681,-2.8495 l 2.0682,-17.4057 c 0.1798,-1.0854 -0.2402,-2.0697 -1.2582,-2.9517 -1.02,-0.8821 -2.3987,-1.3226 -4.1372,-1.3226 H 403.566 c -2.458,0 -4.7362,-0.3224 -6.8344,-0.9674 -2.0983,-0.6449 -3.9127,-1.51 -5.4412,-2.5955 -1.5284,-1.0854 -2.6826,-2.3574 -3.4614,-3.8169 -0.7798,-1.4585 -1.0793,-3.036 -0.8994,-4.7326 l 2.0671,-14.7586 c 0.2402,-1.6966 0.9296,-3.291 2.0691,-4.7843 1.1386,-1.4932 2.5932,-2.7989 4.3619,-3.9181 1.7687,-1.1201 3.7921,-2.0022 6.0702,-2.6471 2.2781,-0.6439 4.6468,-0.9663 7.1048,-0.9663 h 14.9291 c 2.5173,0 4.811,0.3224 6.8791,0.9663 2.0681,0.6449 3.8222,1.527 5.2613,2.6471 1.438,1.1192 2.5329,2.4249 3.2825,3.9181 0.7487,1.4933 1.0939,3.0877 1.0336,4.7843 -0.1196,3.0529 -1.5586,5.0551 -4.3161,6.0046 -2.7575,0.9505 -7.0154,0.7809 -12.7705,-0.509 l 0.4491,-3.2563 c 0.1207,-1.2213 -0.3597,-2.2056 -1.438,-2.9517 -1.0792,-0.7471 -2.459,-1.1201 -4.1372,-1.1201 h -6.0255 c -1.6782,0 -3.163,0.373 -4.4513,1.1201 -1.2893,0.7461 -1.9932,1.7304 -2.1139,2.9517 l -1.2581,9.3642 c -0.1799,1.1529 0.2537,2.1034 1.3029,2.8495 1.0491,0.7461 2.4434,1.1201 4.1819,1.1201 h 12.1415 c 2.5173,0 4.8256,0.3215 6.9249,0.9664 2.0982,0.6449 3.896,1.5438 5.3954,2.6977 1.4993,1.1529 2.6223,2.4934 3.372,4.0203 0.7496,1.527 1.0345,3.1383 0.8547,4.8349 z m 64.6615,-62.9027 -1.439,10.1787 h -16.9972 l -7.9137,63.8185 h -16.6385 l 7.9147,-63.8185 h -17.2675 c -0.7185,-1.4248 -0.914,-2.7652 -0.5833,-4.0203 0.3296,-1.2551 0.9888,-2.3416 1.9787,-3.2573 0.9888,-0.9158 2.2324,-1.6282 3.7317,-2.1372 1.4983,-0.509 3.0871,-0.7639 4.7664,-0.7639 h 25.0908 z m 43.9773,73.9972 h -16.0084 l -1.7988,-14.2496 h -19.9647 c -1.438,3.5966 -2.8469,6.4799 -4.2256,8.6518 -1.3798,2.1708 -2.8781,3.7831 -4.4981,4.8348 -1.6179,1.0517 -3.4167,1.6113 -5.3954,1.6788 -1.9787,0.0684 -4.3161,-0.2371 -7.0143,-0.9158 0.7195,-1.9675 2.1575,-5.9372 4.3161,-11.909 0.8994,-2.5102 2.0244,-5.5979 3.372,-9.262 1.3496,-3.6641 2.9394,-8.0068 4.7663,-13.0282 1.829,-5.0214 3.9574,-10.8236 6.3863,-17.4057 2.4279,-6.5821 5.1708,-14.0462 8.2288,-22.3923 h 13.0398 c 1.3195,0 2.6233,0.2718 3.9127,0.8145 1.2882,0.5427 2.458,1.272 3.5061,2.1888 1.0491,0.9157 1.9194,1.9506 2.6088,3.1035 0.6893,1.1539 1.0949,2.3752 1.2134,3.6651 z m -19.0664,-24.4283 -3.7764,-30.4329 -11.1516,30.4329 z"
       style="fill:#e30016;fill-rule:evenodd"
       id="path4"
       inkscape:connector-curvature="0" />
    <path
       d="m 209.9769,146.7354 c 18.9406,0 37.8812,0 56.8219,0 0,14.5515 0,29.1031 0,43.6544 1.7282,9.7293 5.5342,14.1365 14.2767,19.8855 3.7807,1.7821 5.6614,2.3854 9.7845,3.147 -0.0725,0.4019 -0.1448,0.8036 -0.2175,1.2054 -9.8985,-0.1254 -16.2564,-2.5199 -23.5681,-6.8478 -14.2192,-8.9849 -55.7552,-36.6646 -57.0975,-61.0445 z"
       style="fill:#e30016;fill-rule:evenodd"
       id="path6"
       inkscape:connector-curvature="0" />
    <path
       d="m 282.8971,48.9077 c 0,17.4975 0,34.9951 0,52.4927 -15.7516,0 -31.5032,0 -47.2547,0 -10.5317,1.5966 -15.3023,5.1126 -21.5255,13.189 -1.929,3.4927 -2.582,5.2301 -3.4064,9.039 -0.4351,-0.0669 -0.87,-0.1337 -1.3049,-0.2008 0.1358,-9.1444 2.7277,-15.0179 7.4125,-21.7725 9.726,-13.1359 39.6884,-51.5074 66.079,-52.7474 z"
       style="fill:#e30016;fill-rule:evenodd"
       id="path8"
       inkscape:connector-curvature="0" />
    <path
       d="m 385.302,117.25 c -18.9407,0 -37.8813,0 -56.822,0 0,-14.5515 0,-29.1031 0,-43.6545 -1.7282,-9.7292 -5.5342,-14.1364 -14.2766,-19.8855 -3.7807,-1.7821 -5.6615,-2.3853 -9.7845,-3.1469 0.0724,-0.4019 0.1448,-0.8037 0.2174,-1.2054 9.8986,0.1254 16.2564,2.5198 23.5681,6.8477 14.2192,8.985 55.7553,36.6646 57.0976,61.0446 z"
       style="fill:#e30016;fill-rule:evenodd"
       id="path10"
       inkscape:connector-curvature="0" />
    <path
       d="m 312.3817,215.0777 c 0,-17.4976 0,-34.9952 0,-52.4928 15.7516,0 31.5033,0 47.2547,0 10.5317,-1.5965 15.3023,-5.1125 21.5255,-13.1889 1.9291,-3.4927 2.582,-5.2301 3.4065,-9.0391 0.435,0.067 0.8699,0.1338 1.3048,0.2009 -0.1358,9.1444 -2.7277,15.0178 -7.4125,21.7725 -9.726,13.1359 -39.6884,51.5074 -66.079,52.7474 z"
       style="fill:#e30016;fill-rule:evenodd"
       id="path12"
       inkscape:connector-curvature="0" />
    <path
       d="m 118.1395,380.9237 c -0.1142,0.8926 -0.6086,1.4822 -1.4831,1.7691 -0.8747,0.2868 -2.2056,0.2602 -3.9928,-0.0797 l 0.1998,-1.0519 c 0.0377,-0.3612 -0.1142,-0.6693 -0.4567,-0.9244 -0.3421,-0.2551 -0.7888,-0.3824 -1.3402,-0.3824 h -1.9108 c -0.5324,0 -0.9984,0.1273 -1.3975,0.3824 -0.3994,0.2551 -0.6182,0.5632 -0.6562,0.9244 l -1.7966,14.1531 c -0.038,0.3398 0.1091,0.6375 0.4419,0.8923 0.3328,0.2551 0.775,0.3827 1.3263,0.3827 h 1.8825 c 0.5324,0 1.0026,-0.1276 1.4117,-0.3827 0.4087,-0.2548 0.6415,-0.5525 0.6987,-0.8923 l 0.2852,-2.2952 h 5.1908 l -0.3138,2.8689 c -0.057,0.5312 -0.2665,1.0361 -0.6276,1.514 -0.3611,0.4782 -0.8269,0.8926 -1.3975,1.2433 -0.5703,0.3506 -1.2169,0.627 -1.9394,0.8288 -0.7226,0.2018 -1.4735,0.3028 -2.253,0.3028 h -4.7631 c -0.7795,0 -1.5021,-0.101 -2.1673,-0.3028 -0.6656,-0.2018 -1.2359,-0.4782 -1.7116,-0.8288 -0.4751,-0.3507 -0.841,-0.7651 -1.0979,-1.2433 -0.2565,-0.4779 -0.3566,-0.9828 -0.2993,-1.514 l 1.9108,-15.3643 c 0.095,-0.5313 0.328,-1.0361 0.6988,-1.514 0.3705,-0.4782 0.8317,-0.8927 1.3833,-1.2433 0.5513,-0.3507 1.1834,-0.6321 1.8966,-0.8447 0.713,-0.2126 1.459,-0.3189 2.2388,-0.3189 h 4.8198 c 0.7605,0 1.4785,0.1063 2.1535,0.3189 0.6749,0.2126 1.2501,0.494 1.7254,0.8447 0.4754,0.3506 0.8368,0.7651 1.0837,1.2433 0.2475,0.4779 0.3328,0.9827 0.2568,1.514 z m 17.3977,1.3705 -2.2249,17.8827 c -0.7223,0.0637 -1.4021,0.1221 -2.0393,0.1751 -0.6367,0.0533 -1.1928,0.0692 -1.6682,0.0479 -0.4756,-0.0212 -0.8461,-0.085 -1.1123,-0.1913 -0.2665,-0.106 -0.3804,-0.2761 -0.3421,-0.51 -0.5896,0.2552 -1.179,0.457 -1.7683,0.6058 -0.5896,0.1488 -1.2169,0.2231 -1.8825,0.2231 h -1.2835 c -0.7985,0 -1.5307,-0.1009 -2.196,-0.3027 -0.6656,-0.2022 -1.2407,-0.4782 -1.7257,-0.8289 -0.4845,-0.3506 -0.8459,-0.7597 -1.0837,-1.2271 -0.2376,-0.4677 -0.328,-0.9564 -0.2707,-1.4664 l 1.8535,-14.4082 c 0.7036,-0.3186 1.3644,-0.4674 1.9823,-0.4462 0.618,0.0213 1.1455,0.1755 1.5829,0.4624 0.4374,0.2868 0.7653,0.7064 0.9839,1.2591 0.2185,0.5525 0.2903,1.19 0.214,1.9125 l -1.3119,10.5509 c -0.038,0.3614 0.1188,0.6588 0.4703,0.8926 0.3518,0.2339 0.8036,0.3507 1.355,0.3507 h 1.3974 c 0.5704,0 1.0506,-0.1168 1.4403,-0.3507 0.3898,-0.2338 0.6132,-0.5312 0.6701,-0.8926 l 1.7116,-13.7387 z m 1.8535,0 c 0.7988,-0.2123 1.5214,-0.3186 2.1677,-0.3186 0.6463,0 1.1835,0.1275 1.6115,0.3824 0.4277,0.2551 0.7319,0.6537 0.9127,1.1954 0.1806,0.5419 0.2041,1.2591 0.0712,2.1517 l -1.7969,14.5035 h -5.2478 z m 5.8754,-5.1956 -0.4564,3.5382 h -5.1908 l 0.3711,-3.5382 z m 12.3208,0 c 1.8442,-0.5525 3.166,-0.5207 3.9642,0.0955 0.7989,0.6163 1.0744,1.8808 0.8272,3.7933 l -2.3958,19.1895 c -0.7033,0.0637 -1.3785,0.1062 -2.0248,0.1275 -0.6466,0.0213 -1.2121,0.0213 -1.6971,0 -0.4848,-0.0213 -0.8603,-0.0796 -1.1262,-0.1755 -0.2665,-0.0955 -0.3708,-0.2389 -0.3138,-0.4303 -0.5896,0.2552 -1.179,0.457 -1.7683,0.6058 -0.5896,0.1488 -1.2169,0.2231 -1.8825,0.2231 h -1.2835 c -0.7985,0 -1.5307,-0.1009 -2.196,-0.3027 -0.6653,-0.2022 -1.2407,-0.4782 -1.7254,-0.8289 -0.4848,-0.3506 -0.8462,-0.7597 -1.084,-1.2271 -0.2376,-0.4677 -0.3277,-0.9564 -0.2707,-1.4664 l 1.3118,-10.8697 c 0.057,-0.5315 0.271,-1.0307 0.6418,-1.4984 0.3708,-0.4674 0.8413,-0.8765 1.4117,-1.2271 0.5703,-0.3507 1.2169,-0.627 1.9394,-0.8289 0.7226,-0.2018 1.4828,-0.3027 2.2816,-0.3027 h 1.3119 c 0.6656,0 1.2742,0.0743 1.8255,0.2231 0.5514,0.1488 1.0741,0.3719 1.5687,0.6695 z m -1.1123,9.4354 c 0.019,-0.3614 -0.1426,-0.6749 -0.4847,-0.9406 -0.3422,-0.2656 -0.7799,-0.3982 -1.3122,-0.3982 h -1.4545 c -0.5133,0 -0.9793,0.1326 -1.3974,0.3982 -0.4184,0.2657 -0.637,0.5792 -0.656,0.9406 l -1.2549,9.4989 c -0.038,0.3614 0.1188,0.6588 0.4706,0.8926 0.3518,0.2339 0.8033,0.3507 1.3547,0.3507 h 1.3974 c 0.5707,0 1.0506,-0.1168 1.4403,-0.3507 0.3901,-0.2338 0.6132,-0.5312 0.6701,-0.8926 z m 21.5617,13.6429 c -3.6317,0.5524 -5.362,0.3931 -5.1911,-0.4783 -0.5893,0.2552 -1.1832,0.457 -1.7824,0.6058 -0.5987,0.1488 -1.2027,0.2231 -1.8111,0.2231 h -1.7682 c -0.7985,0 -1.5307,-0.1009 -2.196,-0.3027 -0.6653,-0.2022 -1.2407,-0.4782 -1.7255,-0.8289 -0.4847,-0.3506 -0.8461,-0.7597 -1.0839,-1.2271 -0.2376,-0.4677 -0.3277,-0.9564 -0.2707,-1.4664 l 0.5703,-4.1757 c 0.076,-0.5315 0.2948,-1.0361 0.6559,-1.5143 0.3615,-0.4782 0.8175,-0.8926 1.3692,-1.2432 0.5513,-0.3507 1.1786,-0.6268 1.8822,-0.8286 0.7035,-0.2021 1.4354,-0.303 2.1963,-0.303 h 3.3936 c 0.5323,0 1.008,-0.1327 1.4261,-0.3983 0.4184,-0.2656 0.6466,-0.5791 0.6846,-0.9405 l 0.1142,-0.7648 c 0.038,-0.3614 -0.1094,-0.6749 -0.4422,-0.9406 -0.3328,-0.2656 -0.7747,-0.3982 -1.326,-0.3982 h -1.3978 c -0.5134,0 -0.9791,0.1326 -1.3975,0.3982 -0.4184,0.2657 -0.6466,0.5792 -0.6846,0.9406 l -0.1139,0.1273 h -5.1338 l 0.0569,-0.8286 c 0.0573,-0.5315 0.271,-1.0307 0.6418,-1.4984 0.3708,-0.4674 0.8416,-0.8765 1.4119,-1.2271 0.5704,-0.3507 1.217,-0.627 1.9392,-0.8289 0.7226,-0.2018 1.4831,-0.3027 2.2819,-0.3027 h 4.2778 c 0.7988,0 1.5307,0.1009 2.1963,0.3027 0.6655,0.2019 1.2311,0.4782 1.6968,0.8289 0.466,0.3506 0.8178,0.7597 1.0553,1.2271 0.2378,0.4677 0.3186,0.9669 0.2427,1.4984 z m -4.1641,-9.0848 c -0.5133,0.2551 -1.0695,0.4411 -1.6685,0.5579 -0.5989,0.1167 -1.231,0.1754 -1.8966,0.1754 h -0.3708 c -0.5323,0 -0.9983,0.1327 -1.3975,0.3983 -0.3991,0.2656 -0.6369,0.5791 -0.7129,0.9405 l -0.3138,2.8687 c -0.038,0.3614 0.1188,0.6588 0.4706,0.8926 0.3518,0.2339 0.8033,0.3507 1.3547,0.3507 h 1.8824 c 0.5324,0 0.9981,-0.1168 1.3975,-0.3507 0.3991,-0.2338 0.6276,-0.5312 0.6846,-0.8926 z m 18.3957,-9.1165 c 0.7796,0 1.4973,0.1009 2.1532,0.3027 0.6563,0.2019 1.2218,0.4782 1.6971,0.8289 0.4751,0.3506 0.8317,0.7597 1.0695,1.2271 0.2376,0.4677 0.328,0.9669 0.2708,1.4984 l -1.7683,14.3442 c -0.7982,0.2976 -1.5162,0.441 -2.1532,0.4302 -0.6369,-0.0104 -1.1741,-0.1539 -1.6112,-0.4302 -0.4377,-0.2764 -0.756,-0.6855 -0.9556,-1.2272 -0.1998,-0.542 -0.2423,-1.1953 -0.1281,-1.9604 l 1.3402,-10.4553 c 0.019,-0.3614 -0.1426,-0.6749 -0.485,-0.9406 -0.3421,-0.2656 -0.7795,-0.3982 -1.3119,-0.3982 h -1.3688 c -0.5513,0 -1.0363,0.1326 -1.4545,0.3982 -0.4184,0.2657 -0.6372,0.5792 -0.6562,0.9406 l -1.654,13.6429 h -5.362 l 2.2816,-17.8827 c 0.6466,-0.0848 1.2694,-0.1647 1.8683,-0.239 0.5987,-0.0742 1.1359,-0.1009 1.6112,-0.0796 0.4757,0.0213 0.8652,0.1009 1.1696,0.239 0.3039,0.1383 0.4847,0.356 0.5417,0.6536 1.103,-0.5953 2.3009,-0.8926 3.5935,-0.8926 z m 18.6239,-4.877 c 1.8443,-0.5525 3.1658,-0.5207 3.9643,0.0955 0.7988,0.6163 1.0743,1.8808 0.8271,3.7933 l -2.3958,19.1895 c -0.7033,0.0637 -1.3785,0.1062 -2.0248,0.1275 -0.6466,0.0213 -1.2121,0.0213 -1.6971,0 -0.4847,-0.0213 -0.8603,-0.0796 -1.1262,-0.1755 -0.2664,-0.0955 -0.371,-0.2389 -0.3138,-0.4303 -0.5896,0.2552 -1.1789,0.457 -1.7682,0.6058 -0.5896,0.1488 -1.217,0.2231 -1.8825,0.2231 h -1.2836 c -0.7985,0 -1.5307,-0.1009 -2.196,-0.3027 -0.6655,-0.2022 -1.2407,-0.4782 -1.7254,-0.8289 -0.4847,-0.3506 -0.8461,-0.7597 -1.084,-1.2271 -0.2375,-0.4677 -0.3279,-0.9564 -0.2707,-1.4664 l 1.3119,-10.8697 c 0.057,-0.5315 0.271,-1.0307 0.6418,-1.4984 0.3707,-0.4674 0.8413,-0.8765 1.4116,-1.2271 0.5703,-0.3507 1.2169,-0.627 1.9395,-0.8289 0.7225,-0.2018 1.4828,-0.3027 2.2816,-0.3027 h 1.3119 c 0.6655,0 1.2741,0.0743 1.8255,0.2231 0.5513,0.1488 1.074,0.3719 1.5687,0.6695 z m -1.1123,9.4354 c 0.019,-0.3614 -0.1426,-0.6749 -0.485,-0.9406 -0.3421,-0.2656 -0.7795,-0.3982 -1.3119,-0.3982 h -1.4544 c -0.5134,0 -0.9794,0.1326 -1.3975,0.3982 -0.4184,0.2657 -0.6369,0.5792 -0.6559,0.9406 l -1.2549,9.4989 c -0.038,0.3614 0.1187,0.6588 0.4705,0.8926 0.3518,0.2339 0.8034,0.3507 1.3547,0.3507 h 1.3975 c 0.5703,0 1.0505,-0.1168 1.4403,-0.3507 0.39,-0.2338 0.6131,-0.5312 0.6701,-0.8926 z m 17.6828,-4.5584 c 0.7796,0 1.4973,0.1009 2.1532,0.3027 0.6562,0.2019 1.2218,0.4782 1.6971,0.8289 0.4751,0.3506 0.8317,0.7597 1.0695,1.2271 0.2376,0.4677 0.328,0.9669 0.2708,1.4984 l -1.3689,10.8697 c -0.057,0.51 -0.2662,0.9987 -0.6273,1.4664 -0.3614,0.4674 -0.8226,0.8765 -1.3833,1.2271 -0.561,0.3507 -1.1931,0.6267 -1.8967,0.8289 -0.7035,0.2018 -1.4354,0.3027 -2.196,0.3027 h -4.3923 c -0.7985,0 -1.5307,-0.1009 -2.196,-0.3027 -0.6655,-0.2022 -1.2407,-0.4782 -1.7254,-0.8289 -0.4847,-0.3506 -0.8461,-0.7597 -1.084,-1.2271 -0.2375,-0.4677 -0.3279,-0.9564 -0.2707,-1.4664 l 1.3119,-10.8697 c 0.057,-0.5315 0.271,-1.0307 0.6418,-1.4984 0.3707,-0.4674 0.8413,-0.8765 1.4116,-1.2271 0.5703,-0.3507 1.2169,-0.627 1.9395,-0.8289 0.7225,-0.2018 1.4828,-0.3027 2.2816,-0.3027 z m -0.0856,4.5584 c 0.019,-0.3614 -0.1426,-0.6749 -0.485,-0.9406 -0.3421,-0.2656 -0.7795,-0.3982 -1.3119,-0.3982 h -1.4544 c -0.5134,0 -0.9794,0.1326 -1.3975,0.3982 -0.4184,0.2657 -0.6369,0.5792 -0.6559,0.9406 l -1.2549,9.4989 c -0.038,0.3614 0.1187,0.6588 0.4705,0.8926 0.3518,0.2339 0.8034,0.3507 1.3547,0.3507 h 1.3975 c 0.5703,0 1.0505,-0.1168 1.4403,-0.3507 0.39,-0.2338 0.6131,-0.5312 0.6701,-0.8926 z m 38.2173,-9.4354 c 1.8445,-0.5525 3.166,-0.5207 3.9645,0.0955 0.7985,0.6163 1.0744,1.8808 0.8272,3.7933 l -2.3959,19.1895 c -0.7032,0.0637 -1.3785,0.1062 -2.0248,0.1275 -0.6465,0.0213 -1.2121,0.0213 -1.6971,0 -0.4847,-0.0213 -0.8603,-0.0796 -1.1265,-0.1755 -0.2661,-0.0955 -0.3707,-0.2389 -0.3135,-0.4303 -0.5896,0.2552 -1.1789,0.457 -1.7682,0.6058 -0.5896,0.1488 -1.2169,0.2231 -1.8825,0.2231 h -1.2835 c -0.7986,0 -1.5307,-0.1009 -2.196,-0.3027 -0.6656,-0.2022 -1.2408,-0.4782 -1.7258,-0.8289 -0.4844,-0.3506 -0.8458,-0.7597 -1.0836,-1.2271 -0.2376,-0.4677 -0.328,-0.9564 -0.2708,-1.4664 l 1.3119,-10.8697 c 0.0567,-0.5315 0.271,-1.0307 0.6418,-1.4984 0.3708,-0.4674 0.8413,-0.8765 1.4116,-1.2271 0.5704,-0.3507 1.2169,-0.627 1.9395,-0.8289 0.7226,-0.2018 1.4828,-0.3027 2.2816,-0.3027 h 1.3119 c 0.6656,0 1.2739,0.0743 1.8255,0.2231 0.5513,0.1488 1.074,0.3719 1.5684,0.6695 z m -1.112,9.4354 c 0.0189,-0.3614 -0.1426,-0.6749 -0.4851,-0.9406 -0.3421,-0.2656 -0.7795,-0.3982 -1.3118,-0.3982 h -1.4545 c -0.5133,0 -0.9794,0.1326 -1.3975,0.3982 -0.4184,0.2657 -0.6369,0.5792 -0.6559,0.9406 l -1.2549,9.4989 c -0.038,0.3614 0.1188,0.6588 0.4706,0.8926 0.3517,0.2339 0.8033,0.3507 1.3546,0.3507 h 1.3975 c 0.5703,0 1.0505,-0.1168 1.4403,-0.3507 0.3898,-0.2338 0.6131,-0.5312 0.6701,-0.8926 z m 17.6828,-4.5584 c 0.7795,0 1.4972,0.1009 2.1532,0.3027 0.6562,0.2019 1.2217,0.4782 1.6968,0.8289 0.4753,0.3506 0.8319,0.7597 1.0698,1.2271 0.2375,0.4677 0.3277,0.9669 0.2707,1.4984 l -1.3689,10.8697 c -0.057,0.51 -0.2661,0.9987 -0.6273,1.4664 -0.3614,0.4674 -0.8226,0.8765 -1.3833,1.2271 -0.561,0.3507 -1.1931,0.6267 -1.8967,0.8289 -0.7035,0.2018 -1.4354,0.3027 -2.196,0.3027 h -4.3922 c -0.7986,0 -1.5307,-0.1009 -2.196,-0.3027 -0.6656,-0.2022 -1.2408,-0.4782 -1.7258,-0.8289 -0.4844,-0.3506 -0.8458,-0.7597 -1.0837,-1.2271 -0.2375,-0.4677 -0.3279,-0.9564 -0.2707,-1.4664 l 1.3119,-10.8697 c 0.0567,-0.5315 0.271,-1.0307 0.6418,-1.4984 0.3707,-0.4674 0.8413,-0.8765 1.4116,-1.2271 0.5704,-0.3507 1.2169,-0.627 1.9395,-0.8289 0.7225,-0.2018 1.4828,-0.3027 2.2816,-0.3027 z m -0.0857,4.5584 c 0.019,-0.3614 -0.1425,-0.6749 -0.485,-0.9406 -0.3421,-0.2656 -0.7795,-0.3982 -1.3118,-0.3982 h -1.4545 c -0.5133,0 -0.9794,0.1326 -1.3975,0.3982 -0.4184,0.2657 -0.6369,0.5792 -0.6559,0.9406 l -1.2549,9.4989 c -0.038,0.3614 0.1188,0.6588 0.4705,0.8926 0.3518,0.2339 0.8034,0.3507 1.3547,0.3507 h 1.3975 c 0.5703,0 1.0505,-0.1168 1.4403,-0.3507 0.3898,-0.2338 0.6131,-0.5312 0.6701,-0.8926 z m 41.0126,10.1684 c -0.057,0.51 -0.2662,0.9987 -0.6274,1.4664 -0.3614,0.4674 -0.8226,0.8765 -1.3833,1.2271 -0.5609,0.3507 -1.2027,0.6267 -1.9253,0.8289 -0.7222,0.2018 -1.483,0.3027 -2.2816,0.3027 h -4.278 c -0.7985,0 -1.5307,-0.1009 -2.196,-0.3027 -0.6656,-0.2022 -1.2407,-0.4782 -1.7257,-0.8289 -0.4848,-0.3506 -0.8462,-0.7597 -1.0837,-1.2271 -0.2376,-0.4677 -0.328,-0.9564 -0.2707,-1.4664 l 0.3135,-2.5183 h 5.2191 l -0.2279,1.8488 c -0.0382,0.3614 0.1185,0.6588 0.4703,0.8926 0.3518,0.2339 0.8036,0.3507 1.355,0.3507 h 1.3974 c 0.5704,0 1.0506,-0.1168 1.4403,-0.3507 0.3898,-0.2338 0.6132,-0.5312 0.6701,-0.8926 l 0.3425,-2.5818 c 0.0189,-0.3402 -0.1474,-0.6375 -0.4992,-0.8926 -0.3518,-0.2552 -0.7747,-0.3824 -1.2691,-0.3824 h -2.9378 c -0.7983,0 -1.5256,-0.1012 -2.1816,-0.3031 -0.6562,-0.2018 -1.2169,-0.4782 -1.6829,-0.8285 -0.4657,-0.3507 -0.8127,-0.7546 -1.0412,-1.2116 -0.2279,-0.4566 -0.3132,-0.9507 -0.2565,-1.4822 l 0.1998,-2.518 c 0.0567,-0.5315 0.271,-1.0307 0.6418,-1.4984 0.3708,-0.4674 0.841,-0.8765 1.4117,-1.2271 0.5703,-0.3507 1.2169,-0.627 1.9394,-0.8289 0.7226,-0.2018 1.4828,-0.3027 2.2816,-0.3027 h 3.8217 c 0.7795,0 1.4973,0.1009 2.1535,0.3027 0.6556,0.2019 1.2169,0.4782 1.6823,0.8289 0.4661,0.3506 0.8227,0.7597 1.0696,1.2271 0.2474,0.4677 0.3424,0.9669 0.2854,1.4984 -0.038,0.4674 -0.195,0.8073 -0.4708,1.0199 -0.2756,0.2126 -0.6511,0.3402 -1.1262,0.3824 -0.4757,0.0425 -1.027,0.005 -1.6546,-0.1114 -0.6273,-0.1168 -1.3116,-0.271 -2.0532,-0.4623 l 0.0284,-0.1273 c 0.038,-0.3614 -0.1094,-0.6749 -0.4422,-0.9406 -0.3325,-0.2656 -0.7747,-0.3982 -1.3261,-0.3982 h -0.9411 c -0.5133,0 -0.9793,0.1326 -1.3974,0.3982 -0.4184,0.2657 -0.637,0.5792 -0.656,0.9406 l -0.1995,0.7648 c -0.019,0.3614 0.1519,0.6749 0.5133,0.9405 0.3612,0.2656 0.7889,0.3983 1.2833,0.3983 h 2.8519 c 0.7988,0 1.5307,0.1009 2.1963,0.303 0.6653,0.2018 1.2359,0.4779 1.711,0.8286 0.4753,0.3506 0.8368,0.765 1.0839,1.2432 0.2472,0.4782 0.3422,0.9828 0.2852,1.5143 z m 3.1373,-10.8697 c 0.0567,-0.5315 0.2662,-1.0307 0.6276,-1.4984 0.3612,-0.4674 0.8269,-0.8765 1.3972,-1.2271 0.5706,-0.3507 1.2218,-0.627 1.9539,-0.8289 0.732,-0.2018 1.497,-0.3027 2.2958,-0.3027 h 4.2781 c 0.7985,0 1.5307,0.1009 2.196,0.3027 0.6655,0.2019 1.2311,0.4728 1.6971,0.813 0.4657,0.3399 0.8127,0.7384 1.0409,1.1954 0.2281,0.4566 0.3044,0.9402 0.2281,1.4502 l -0.6845,5.6421 h -10.4386 l -0.5417,4.3353 c -0.038,0.3398 0.1142,0.6375 0.4564,0.8923 0.3421,0.2551 0.7889,0.3827 1.3402,0.3827 h 1.3691 c 0.5134,0 0.9888,-0.1276 1.4261,-0.3827 0.4374,-0.2548 0.694,-0.5525 0.7699,-0.8923 v -0.5738 c 1.0457,-0.4464 1.9585,-0.765 2.738,-0.9564 0.7795,-0.1913 1.393,-0.2443 1.8397,-0.1593 0.4467,0.0851 0.7132,0.3135 0.7985,0.6852 0.0856,0.3719 -0.0238,0.898 -0.3279,1.578 -0.1903,0.4887 -0.4706,0.9615 -0.8417,1.4185 -0.3704,0.4569 -0.822,0.8713 -1.3543,1.2432 -0.5324,0.3719 -1.1362,0.6693 -1.8114,0.8924 -0.6746,0.2231 -1.4116,0.3348 -2.2102,0.3348 h -4.2494 c -0.7988,0 -1.5307,-0.101 -2.1963,-0.3028 -0.6655,-0.2018 -1.2359,-0.4782 -1.7112,-0.8288 -0.4751,-0.3507 -0.8365,-0.7651 -1.0837,-1.2433 -0.2472,-0.4779 -0.3424,-0.9828 -0.2852,-1.514 z m 5.0196,2.3587 h 5.2764 l 0.2566,-1.6574 c 0.019,-0.3614 -0.1474,-0.6749 -0.4992,-0.9406 -0.3518,-0.2656 -0.7844,-0.3982 -1.2977,-0.3982 h -1.3689 c -0.5513,0 -1.0363,0.1326 -1.4544,0.3982 -0.4187,0.2657 -0.6372,0.5792 -0.6562,0.9406 z m 28.863,-5.8972 -2.225,17.8827 c -0.7222,0.0637 -1.402,0.1221 -2.0392,0.1751 -0.6367,0.0533 -1.1928,0.0692 -1.6682,0.0479 -0.4756,-0.0212 -0.8461,-0.085 -1.1123,-0.1913 -0.2665,-0.106 -0.3804,-0.2761 -0.3421,-0.51 -0.5897,0.2552 -1.179,0.457 -1.7686,0.6058 -0.5893,0.1488 -1.2166,0.2231 -1.8822,0.2231 h -1.2835 c -0.7985,0 -1.5307,-0.1009 -2.196,-0.3027 -0.6656,-0.2022 -1.2407,-0.4782 -1.7257,-0.8289 -0.4848,-0.3506 -0.8462,-0.7597 -1.0837,-1.2271 -0.2376,-0.4677 -0.328,-0.9564 -0.2707,-1.4664 l 1.8535,-14.4082 c 0.7036,-0.3186 1.3644,-0.4674 1.9823,-0.4462 0.618,0.0213 1.1455,0.1755 1.5829,0.4624 0.4374,0.2868 0.7653,0.7064 0.9839,1.2591 0.2185,0.5525 0.2902,1.19 0.214,1.9125 l -1.3119,10.5509 c -0.0382,0.3614 0.1185,0.6588 0.4703,0.8926 0.3518,0.2339 0.8036,0.3507 1.3549,0.3507 h 1.3975 c 0.5704,0 1.0505,-0.1168 1.4403,-0.3507 0.3898,-0.2338 0.6131,-0.5312 0.6701,-0.8926 l 1.7116,-13.7387 z m 31.4577,-0.3186 c 0.7798,0 1.4976,0.1009 2.1535,0.3027 0.6559,0.2019 1.2217,0.4782 1.6968,0.8289 0.4754,0.3506 0.832,0.7597 1.0695,1.2271 0.2379,0.4677 0.328,0.9669 0.271,1.4984 l -1.3688,10.8697 c -0.057,0.51 -0.2662,0.9987 -0.6276,1.4664 -0.3611,0.4674 -0.8223,0.8765 -1.383,1.2271 -0.561,0.3507 -1.1931,0.6267 -1.8967,0.8289 -0.7036,0.2018 -1.4355,0.3027 -2.1963,0.3027 h -1.4261 c -0.6653,0 -1.2784,-0.0743 -1.8394,-0.2231 -0.5607,-0.1488 -1.0505,-0.3506 -1.4689,-0.6058 v 0.4783 h -5.3617 l 2.8805,-23.0783 c 1.7876,-0.4252 3.104,-0.3453 3.9501,0.2389 0.8461,0.5845 1.1361,1.8012 0.87,3.6499 l -0.2282,1.8808 c 1.1029,-0.5953 2.3009,-0.8926 3.5934,-0.8926 z m -0.0853,4.5584 c 0.019,-0.3614 -0.1426,-0.6749 -0.485,-0.9406 -0.3421,-0.2656 -0.7795,-0.3982 -1.3119,-0.3982 h -1.3688 c -0.5514,0 -1.0364,0.1326 -1.4545,0.3982 -0.4187,0.2657 -0.6372,0.5792 -0.6562,0.9406 l -1.2263,9.4989 c -0.038,0.3614 0.1143,0.6588 0.4564,0.8926 0.3421,0.2339 0.7889,0.3507 1.3402,0.3507 h 1.3692 c 0.5703,0 1.0505,-0.1168 1.4402,-0.3507 0.3898,-0.2338 0.6132,-0.5312 0.6701,-0.8926 z m 7.0447,-0.7013 c 0.0567,-0.5315 0.2659,-1.0307 0.6273,-1.4984 0.3614,-0.4674 0.8271,-0.8765 1.3974,-1.2271 0.5707,-0.3507 1.2215,-0.627 1.9537,-0.8289 0.7322,-0.2018 1.4972,-0.3027 2.296,-0.3027 h 4.2781 c 0.7982,0 1.5307,0.1009 2.196,0.3027 0.6656,0.2019 1.2311,0.4728 1.6971,0.813 0.4657,0.3399 0.8127,0.7384 1.0409,1.1954 0.2282,0.4566 0.3044,0.9402 0.2282,1.4502 l -0.6846,5.6421 h -10.4386 l -0.5417,4.3353 c -0.038,0.3398 0.1143,0.6375 0.4564,0.8923 0.3421,0.2551 0.7889,0.3827 1.3402,0.3827 h 1.3692 c 0.5133,0 0.9887,-0.1276 1.4261,-0.3827 0.4371,-0.2548 0.6939,-0.5525 0.7699,-0.8923 v -0.5738 c 1.0457,-0.4464 1.9584,-0.765 2.7379,-0.9564 0.7796,-0.1913 1.393,-0.2443 1.8394,-0.1593 0.4471,0.0851 0.7132,0.3135 0.7988,0.6852 0.0854,0.3719 -0.0238,0.898 -0.3279,1.578 -0.1902,0.4887 -0.4709,0.9615 -0.8416,1.4185 -0.3705,0.4569 -0.8221,0.8713 -1.3544,1.2432 -0.5324,0.3719 -1.1362,0.6693 -1.8114,0.8924 -0.6749,0.2231 -1.4116,0.3348 -2.2101,0.3348 h -4.2495 c -0.7988,0 -1.5307,-0.101 -2.1962,-0.3028 -0.6656,-0.2018 -1.2359,-0.4782 -1.7113,-0.8288 -0.4751,-0.3507 -0.8365,-0.7651 -1.0837,-1.2433 -0.2472,-0.4779 -0.3424,-0.9828 -0.2852,-1.514 z m 5.0193,2.3587 h 5.2764 l 0.2568,-1.6574 c 0.019,-0.3614 -0.1474,-0.6749 -0.4992,-0.9406 -0.3518,-0.2656 -0.7843,-0.3982 -1.2977,-0.3982 h -1.3688 c -0.5514,0 -1.0364,0.1326 -1.4545,0.3982 -0.4187,0.2657 -0.6372,0.5792 -0.6562,0.9406 z m 31.2587,-6.2158 c 0.7796,0 1.5021,0.1009 2.1674,0.3027 0.6656,0.2019 1.2359,0.4782 1.7113,0.8289 0.4754,0.3506 0.8368,0.7597 1.0837,1.2271 0.2474,0.4677 0.3424,0.9669 0.2854,1.4984 l -1.8252,14.3442 c -0.6466,0.2763 -1.2742,0.3985 -1.8825,0.3665 -0.6086,-0.0318 -1.1458,-0.1965 -1.6112,-0.4941 -0.466,-0.2974 -0.8178,-0.7118 -1.0553,-1.243 -0.2379,-0.5315 -0.309,-1.169 -0.2143,-1.9128 l 1.3121,-10.3595 c 0.019,-0.3614 -0.1378,-0.6749 -0.4705,-0.9406 -0.3328,-0.2656 -0.7654,-0.3982 -1.2977,-0.3982 h -0.2852 c -0.2472,0 -0.4947,0.0317 -0.7416,0.0955 -0.2471,0.0638 -0.4708,0.1539 -0.6703,0.271 -0.1996,0.1168 -0.3612,0.2602 -0.4848,0.4303 -0.1236,0.1701 -0.1854,0.3506 -0.1854,0.542 l -1.6826,13.6429 h -5.2194 l 1.7112,-13.6429 c 0.038,-0.3614 -0.1046,-0.6749 -0.4277,-0.9406 -0.3232,-0.2656 -0.7605,-0.3982 -1.3119,-0.3982 h -0.1995 c -0.5514,0 -1.0364,0.1326 -1.4545,0.3982 -0.4187,0.2657 -0.6372,0.5792 -0.6562,0.9406 l -1.6543,13.6429 h -5.3617 l 2.2816,-17.8827 c 0.7035,-0.0848 1.3643,-0.1434 1.9822,-0.1752 0.618,-0.032 1.1551,-0.032 1.6112,0 0.4564,0.0318 0.8224,0.1117 1.0985,0.239 0.2755,0.1275 0.4419,0.2976 0.4989,0.5102 1.1029,-0.5953 2.3292,-0.8926 3.679,-0.8926 0.9508,0 1.8017,0.1488 2.5526,0.4462 0.7509,0.2976 1.3644,0.6908 1.8394,1.1795 0.1333,-0.1276 0.2665,-0.2339 0.3997,-0.3189 0.1327,-0.0848 0.2566,-0.1593 0.3708,-0.2231 0.133,-0.0851 0.2659,-0.1486 0.3991,-0.1911 1.1027,-0.5953 2.3386,-0.8926 3.7077,-0.8926 z m 26.4958,3.8571 c 0.0566,-0.5315 0.2658,-1.0307 0.6273,-1.4984 0.3611,-0.4674 0.8271,-0.8765 1.3974,-1.2271 0.5704,-0.3507 1.2215,-0.627 1.9537,-0.8289 0.7319,-0.2018 1.4972,-0.3027 2.2958,-0.3027 h 4.2783 c 0.7982,0 1.5304,0.1009 2.196,0.3027 0.6656,0.2019 1.2311,0.4728 1.6971,0.813 0.4654,0.3399 0.8124,0.7384 1.0409,1.1954 0.2282,0.4566 0.3041,0.9402 0.2282,1.4502 l -0.6846,5.6421 H 463.894 l -0.5417,4.3353 c -0.0383,0.3398 0.114,0.6375 0.4561,0.8923 0.3422,0.2551 0.7892,0.3827 1.3405,0.3827 h 1.3691 c 0.5134,0 0.9885,-0.1276 1.4262,-0.3827 0.4371,-0.2548 0.6939,-0.5525 0.7698,-0.8923 v -0.5738 c 1.0457,-0.4464 1.9582,-0.765 2.738,-0.9564 0.7796,-0.1913 1.393,-0.2443 1.8394,-0.1593 0.4471,0.0851 0.7132,0.3135 0.7988,0.6852 0.0854,0.3719 -0.0238,0.898 -0.3279,1.578 -0.1902,0.4887 -0.4709,0.9615 -0.8416,1.4185 -0.3705,0.4569 -0.8224,0.8713 -1.3547,1.2432 -0.5324,0.3719 -1.1359,0.6693 -1.8111,0.8924 -0.6749,0.2231 -1.4116,0.3348 -2.2101,0.3348 h -4.2497 c -0.7986,0 -1.5305,-0.101 -2.196,-0.3028 -0.6656,-0.2018 -1.236,-0.4782 -1.7113,-0.8288 -0.4754,-0.3507 -0.8368,-0.7651 -1.0837,-1.2433 -0.2472,-0.4779 -0.3424,-0.9828 -0.2855,-1.514 z m 5.0193,2.3587 h 5.2764 l 0.2568,-1.6574 c 0.019,-0.3614 -0.1474,-0.6749 -0.4992,-0.9406 -0.3518,-0.2656 -0.7846,-0.3982 -1.298,-0.3982 h -1.3685 c -0.5517,0 -1.0364,0.1326 -1.4548,0.3982 -0.4184,0.2657 -0.6369,0.5792 -0.6559,0.9406 z m 27.0377,8.511 c -0.0573,0.51 -0.2665,0.9987 -0.6276,1.4664 -0.3614,0.4674 -0.8224,0.8765 -1.3833,1.2271 -0.561,0.3507 -1.2025,0.6267 -1.925,0.8289 -0.7226,0.2018 -1.4831,0.3027 -2.2816,0.3027 h -4.2784 c -0.7982,0 -1.5304,-0.1009 -2.1957,-0.3027 -0.6656,-0.2022 -1.2407,-0.4782 -1.7257,-0.8289 -0.4848,-0.3506 -0.8462,-0.7597 -1.0837,-1.2271 -0.2378,-0.4677 -0.328,-0.9564 -0.271,-1.4664 l 0.3138,-2.5183 h 5.2191 l -0.2281,1.8488 c -0.038,0.3614 0.1187,0.6588 0.4705,0.8926 0.3518,0.2339 0.8036,0.3507 1.355,0.3507 h 1.3974 c 0.5704,0 1.0506,-0.1168 1.4403,-0.3507 0.3898,-0.2338 0.6129,-0.5312 0.6701,-0.8926 l 0.3425,-2.5818 c 0.019,-0.3402 -0.1474,-0.6375 -0.4992,-0.8926 -0.3518,-0.2552 -0.775,-0.3824 -1.2691,-0.3824 h -2.9378 c -0.7985,0 -1.5259,-0.1012 -2.1818,-0.3031 -0.656,-0.2018 -1.2167,-0.4782 -1.6827,-0.8285 -0.466,-0.3507 -0.813,-0.7546 -1.0412,-1.2116 -0.2279,-0.4566 -0.3135,-0.9507 -0.2565,-1.4822 l 0.1999,-2.518 c 0.0566,-0.5315 0.2707,-1.0307 0.6414,-1.4984 0.3708,-0.4674 0.8414,-0.8765 1.4117,-1.2271 0.5706,-0.3507 1.2169,-0.627 1.9395,-0.8289 0.7225,-0.2018 1.483,-0.3027 2.2816,-0.3027 h 3.8219 c 0.7793,0 1.4973,0.1009 2.1532,0.3027 0.6559,0.2019 1.2169,0.4782 1.6827,0.8289 0.4657,0.3506 0.8223,0.7597 1.0695,1.2271 0.2471,0.4677 0.3424,0.9669 0.2854,1.4984 -0.0383,0.4674 -0.1953,0.8073 -0.4708,1.0199 -0.2758,0.2126 -0.6511,0.3402 -1.1265,0.3824 -0.4754,0.0425 -1.0267,0.005 -1.6543,-0.1114 -0.6273,-0.1168 -1.3116,-0.271 -2.0534,-0.4623 l 0.0286,-0.1273 c 0.038,-0.3614 -0.1094,-0.6749 -0.4422,-0.9406 -0.3328,-0.2656 -0.7747,-0.3982 -1.326,-0.3982 h -0.9414 c -0.5134,0 -0.9791,0.1326 -1.3975,0.3982 -0.4181,0.2657 -0.6367,0.5792 -0.656,0.9406 l -0.1995,0.7648 c -0.019,0.3614 0.1519,0.6749 0.5133,0.9405 0.3612,0.2656 0.7892,0.3983 1.2836,0.3983 h 2.8519 c 0.7985,0 1.5304,0.1009 2.196,0.303 0.6656,0.2018 1.2359,0.4779 1.7113,0.8286 0.4754,0.3506 0.8368,0.765 1.0837,1.2432 0.2474,0.4782 0.3424,0.9828 0.2854,1.5143 z m 11.6648,0.2869 -0.3994,2.9324 c -0.2852,0.1063 -0.5845,0.1755 -0.8983,0.2072 -0.3138,0.0321 -0.6324,0.048 -0.9555,0.048 h -1.2549 c -0.7986,0 -1.5305,-0.101 -2.196,-0.3028 -0.6656,-0.2018 -1.2311,-0.4782 -1.6971,-0.8288 -0.4658,-0.3507 -0.8224,-0.7651 -1.0696,-1.2433 -0.2469,-0.4779 -0.3515,-0.9828 -0.3135,-1.514 l 1.4545,-10.806 h -1.9681 l 0.428,-3.1878 h 1.8822 l 0.2285,-1.4661 c 0.0757,-0.68 0.3087,-1.2963 0.6987,-1.849 0.3898,-0.5525 0.8604,-1.004 1.4117,-1.3547 0.5513,-0.3506 1.1455,-0.5896 1.7824,-0.7172 0.637,-0.1275 1.2407,-0.0955 1.8111,0.0956 l -0.7416,5.2914 h 1.9678 l -0.4274,3.1878 h -1.9395 l -1.2549,10.2323 c -0.0572,0.3398 0.0808,0.6375 0.4136,0.8923 0.3328,0.2551 0.7747,0.3827 1.326,0.3827 h 1.4548 z"
       style="fill:#e30016;fill-rule:evenodd"
       id="path14"
       inkscape:connector-curvature="0" />
    <path
       d="m 520.6785,400.1769 c -3.6315,0.5524 -5.3617,0.3931 -5.1908,-0.4783 -0.5893,0.2552 -1.1835,0.457 -1.7824,0.6058 -0.599,0.1488 -1.2028,0.2231 -1.8111,0.2231 h -1.7682 c -0.7986,0 -1.5308,-0.1009 -2.196,-0.3027 -0.6656,-0.2022 -1.2408,-0.4782 -1.7258,-0.8289 -0.4847,-0.3506 -0.8461,-0.7597 -1.0837,-1.2271 -0.2375,-0.4677 -0.3279,-0.9564 -0.271,-1.4664 l 0.5707,-4.1757 c 0.0759,-0.5315 0.2945,-1.0361 0.6556,-1.5143 0.3614,-0.4782 0.8178,-0.8926 1.3691,-1.2432 0.5514,-0.3507 1.179,-0.6268 1.8825,-0.8286 0.7036,-0.2021 1.4355,-0.303 2.196,-0.303 h 3.394 c 0.5323,0 1.0077,-0.1327 1.4261,-0.3983 0.4181,-0.2656 0.6463,-0.5791 0.6845,-0.9405 l 0.114,-0.7648 c 0.0383,-0.3614 -0.1091,-0.6749 -0.4419,-0.9406 -0.3328,-0.2656 -0.775,-0.3982 -1.3264,-0.3982 h -1.3977 c -0.5134,0 -0.9788,0.1326 -1.3975,0.3982 -0.4181,0.2657 -0.6463,0.5792 -0.6843,0.9406 l -0.1139,0.1273 h -5.1339 l 0.057,-0.8286 c 0.057,-0.5315 0.271,-1.0307 0.6418,-1.4984 0.3707,-0.4674 0.8413,-0.8765 1.4119,-1.2271 0.5703,-0.3507 1.2169,-0.627 1.9392,-0.8289 0.7225,-0.2018 1.4831,-0.3027 2.2819,-0.3027 h 4.2777 c 0.7988,0 1.5307,0.1009 2.196,0.3027 0.6656,0.2019 1.2314,0.4782 1.6971,0.8289 0.4661,0.3506 0.8178,0.7597 1.0554,1.2271 0.2375,0.4677 0.3186,0.9669 0.2423,1.4984 z m -4.1638,-9.0848 c -0.5134,0.2551 -1.0695,0.4411 -1.6688,0.5579 -0.5987,0.1167 -1.2311,0.1754 -1.8964,0.1754 h -0.371 c -0.5324,0 -0.9981,0.1327 -1.3975,0.3983 -0.3991,0.2656 -0.6367,0.5791 -0.7129,0.9405 l -0.3135,2.8687 c -0.0383,0.3614 0.1185,0.6588 0.4703,0.8926 0.3517,0.2339 0.8036,0.3507 1.3549,0.3507 h 1.8825 c 0.5323,0 0.9978,-0.1168 1.3975,-0.3507 0.3991,-0.2338 0.6273,-0.5312 0.6843,-0.8926 z m 18.3954,-9.1165 c 0.7226,0 1.3975,0.1063 2.0251,0.3186 0.6273,0.2126 1.1596,0.4465 1.5973,0.7013 0.2659,0.1488 0.3705,0.3348 0.3138,0.5579 -0.0573,0.223 -0.214,0.4569 -0.4708,0.7012 -0.2566,0.2444 -0.5797,0.4836 -0.9698,0.7172 -0.3897,0.2339 -0.7795,0.4198 -1.1693,0.5579 -0.3897,0.1383 -0.7557,0.218 -1.0978,0.2392 -0.3424,0.0213 -0.5993,-0.0533 -0.7702,-0.2231 -0.1522,-0.1701 -0.3424,-0.271 -0.5703,-0.303 -0.2282,-0.0317 -0.485,-0.0476 -0.7702,-0.0476 h -1.3688 c -0.5514,0 -1.0364,0.1326 -1.4545,0.3982 -0.4187,0.2657 -0.6372,0.5792 -0.6562,0.9406 l -1.6543,13.6429 h -5.3618 l 2.2817,-17.8827 c 1.4261,-0.1911 2.6002,-0.2548 3.5223,-0.1911 0.9221,0.0638 1.4783,0.3187 1.6682,0.7651 1.1032,-0.5953 2.3009,-0.8926 3.5937,-0.8926 z m 3.337,18.1695 0.428,-3.4427 h 5.2761 l -0.3421,3.4427 z"
       style="fill:#e30016;fill-rule:evenodd"
       id="path16"
       inkscape:connector-curvature="0" />
  </g>
</svg>
